{"title":"The.Great.Waldo.Pepper.1975.iNTERNAL.DVDRip.XviD-EXViDiNT","uid":7058295,"size":743267399,"categoryP":"video","categoryS":"movies","magnet":"?xt=urn:btih:186425e6c20ebf9b3223d6e7318ba13a2641f799&amp;dn=The.Great.Waldo.Pepper.1975.iNTERNAL.DVDRip.XviD-EXViDiNT&amp;tr=udp%3A%2F%2Ftracker.openbittorrent.com%3A80&amp;tr=udp%3A%2F%2Fopen.demonii.com%3A1337&amp;tr=udp%3A%2F%2Ftracker.coppersurfer.tk%3A6969&amp;tr=udp%3A%2F%2Fexodus.desync.com%3A6969","seeders":2,"leechers":2,"uploader":"TvTeam","files":5,"time":1330238815,"description":". \n &lt;a href=&quot;\nhttp://www.torrenting.com&quot; rel=&quot;nofollow&quot; target=&quot;_NEW&quot;&gt;\nhttp://www.torrenting.com&lt;/a&gt;          :     Once &amp; For all ;)\n\n\n               www . Torrenting . Com \n\n(((((((((((((= Enjoy No RAR releases =))))))))))))))))))))\n\n\n...................................NFO:....................................\n\n.                                                                                                     \n       \n     \n     \n       \n       \n     \n     \n                                         \n                                         \n                EXVID                    \n                                         \n         \n                                         \n         Filled the Archives             \n                                         \n         \n                                         \n                With:                    \n                                         \n         \n                                         \n                                    \n     E240                           \n                                    \n     SP               (C) 2009      \n                                         \n     \n     \n     \n                                                                                  \n                                                                                   \n             The.Great.Waldo.Pepper.1975.iNTERNAL.DVDRip.XviD-EXViDiNT              \n                                                                                   \n                                                                                  \n     \n                                                                                               \nEXViD aims to iNTERNAL those releases which have been lost in the archives.\nEXViD aims to PRE non-internal releases which have poor sources and are likely skipped by others. &lt;a href=&quot;\nhttp://www.imdb.com/title/tt0073075/&quot; rel=&quot;nofollow&quot; target=&quot;_NEW&quot;&gt;\nhttp://www.imdb.com/title/tt0073075/&lt;/a&gt;\nSubtitles: None\nDate: 2012.02\n\nDirector: George Roy Hill\n\nGenres: Adventure | Drama\n\nPlot:\nA biplane pilot who had missed flying in WWI takes up barnstorming and later a movie career in\nhis quest for the glory he had missed, eventually getting a chance to prove himself in a film\ndepicting the dogfights in the Great War.\n\nCast:\nRobert Redford\t...\tWaldo Pepper\nBo Svenson\t...\tAxel Olsson\nBo Brundin\t...\tErnst Kessler\nSusan Sarandon\t...\tMary Beth\nGeoffrey Lewis\t...\tNewt\nEdward Herrmann\t...\tEzra Stiles\nPhilip Bruns\t...\tDillhoefer\nRoderick Cook\t...\tWerfel\nKelly Jean Peters\t...\tPatsy\nMargot Kidder\t...\tMaude\nScott Newman\t...\tDuke\nJames S. Appleby\t...\tAce\nPatrick W. Henderson Jr.\t...\tScooter\nJames N. Harrell\t...\tFarmer (as James Harrell)\nElma Aicklen\t...\tFarmer's Wife\n\nStats:\nFormat                                   : AVI\nFormat/Info                              : Audio Video Interleave\nFile size                                : 703 MiB\nDuration                                 : 1h 47mn\nOverall bit rate mode                    : Variable\nOverall bit rate                         : 911 Kbps\n\nVideo\nID                                       : 0\nFormat                                   : MPEG-4 Visual\nFormat profile                           : Advanced Simple@L5\nFormat settings, BVOP                    : 2\nFormat settings, QPel                    : No\nFormat settings, GMC                     : No warppoints\nFormat settings, Matrix                  : Default (H.263)\nCodec ID                                 : XVID\nCodec ID/Hint                            : XviD\nDuration                                 : 1h 47mn\nBit rate                                 : 780 Kbps\nWidth                                    : 640 pixels\nHeight                                   : 272 pixels\nDisplay aspect ratio                     : 2.35:1\nFrame rate                               : 23.976 fps\nColor space                              : YUV\nChroma subsampling                       : 4:2:0\nBit depth                                : 8 bits\nScan type                                : Progressive\nCompression mode                         : Lossy\nBits/(Pixel*Frame)                       : 0.187\nStream size                              : 601 MiB (86%)\nWriting library                          : XviD 64\n\nAudio\nID                                       : 1\nFormat                                   : MPEG Audio\nFormat version                           : Version 1\nFormat profile                           : Layer 3\nCodec ID                                 : 55\nCodec ID/Hint                            : MP3\nDuration                                 : 1h 47mn\nBit rate mode                            : Variable\nBit rate                                 : 119 Kbps\nChannel(s)                               : 1 channel\nSampling rate                            : 48.0 KHz\nCompression mode                         : Lossy\nStream size                              : 91.7 MiB (13%)\nAlignment                                : Aligned on interleaves\nInterleave, duration                     : 24 ms (0.58 video frame)\nInterleave, preload duration             : 419 ms\n\n\n\nRelease notes:\nEnjoy!\n\nLooking for:\n75TB+ Archives\nDUTCH/FLEMiSH Archives\n                                                                                                    \nGreets: CRBS EPiSODE FiCO FLS iLS KLASSiGER LiPSYNC MADE NODLABS RUNNER SPRiNTER      \n   \n\n                                                                    ASCII DONE BY XX^NFO 2oo9     \n \n\nRLS-Crc: 415243414445:42EECD90","torrent":{"xt":"urn:btih:186425e6c20ebf9b3223d6e7318ba13a2641f799","amp;dn":"The.Great.Waldo.Pepper.1975.iNTERNAL.DVDRip.XviD-EXViDiNT","amp;tr":["udp%3A%2F%2Ftracker.openbittorrent.com%3A80","udp%3A%2F%2Fopen.demonii.com%3A1337","udp%3A%2F%2Ftracker.coppersurfer.tk%3A6969","udp%3A%2F%2Fexodus.desync.com%3A6969"],"infoHash":"186425e6c20ebf9b3223d6e7318ba13a2641f799","infoHashBuffer":{"type":"Buffer","data":[24,100,37,230,194,14,191,155,50,35,214,231,49,139,161,58,38,65,247,153]},"announce":[],"urlList":[]}}